<svg xmlns="http://www.w3.org/2000/svg" viewBox="0 0 100 100">
  <!-- Outer ring with notches like old compass -->
  <circle cx="50" cy="50" r="46" fill="none" stroke="#8B4513" stroke-width="2" />
  <circle cx="50" cy="50" r="42" fill="#FAF8F3" stroke="#8B4513" stroke-width="1" />

  <!-- Cardinal direction notches -->
  <path
    d="M50 4 L50 12 M50 88 L50 96 M4 50 L12 50 M88 50 L96 50"
    stroke="#8B4513"
    stroke-width="2"
  />

  <!-- Globe lines -->
  <circle cx="50" cy="50" r="35" fill="none" stroke="#4A7C6F" stroke-width="1.5" opacity="0.8" />
  <ellipse cx="50" cy="50" rx="35" ry="15" fill="none" stroke="#4A7C6F" stroke-width="1" opacity="0.6" />
  <ellipse cx="50" cy="50" rx="15" ry="35" fill="none" stroke="#4A7C6F" stroke-width="1" opacity="0.6" />

  <!-- Equator and prime meridian -->
  <line x1="15" y1="50" x2="85" y2="50" stroke="#8B4513" stroke-width="0.75" opacity="0.5" />
  <line x1="50" y1="15" x2="50" y2="85" stroke="#8B4513" stroke-width="0.75" opacity="0.5" />

  <!-- Location pin marker -->
  <g transform="translate(60, 32)">
    <path d="M0 0 C-6 -12 -12 -18 0 -24 C12 -18 6 -12 0 0 Z" fill="#B8860B" stroke="#8B4513" stroke-width="1" />
    <circle cx="0" cy="-16" r="4" fill="#FAF8F3" />
  </g>

  <!-- Decorative corner flourishes -->
  <path d="M20 20 Q25 15 30 20" fill="none" stroke="#8B4513" stroke-width="1" opacity="0.4" />
  <path d="M80 20 Q75 15 70 20" fill="none" stroke="#8B4513" stroke-width="1" opacity="0.4" />
  <path d="M20 80 Q25 85 30 80" fill="none" stroke="#8B4513" stroke-width="1" opacity="0.4" />
  <path d="M80 80 Q75 85 70 80" fill="none" stroke="#8B4513" stroke-width="1" opacity="0.4" />
</svg>
